PathFileType	4	(X/Y/Z)	c:/Users/goper/Files/vsCode/490R/osim_files/C08/C08_SSWS_01.trc
DataRate	CameraRate	NumFrames	NumMarkers	Units                	OrigDataRate	OrigDataStartFrame	OrigNumFrames
250.00	250.00	8	36	mm	250.0	1251	2500
                Frame#	Time	LPSIS			LASIS			LTH1			LTH2			LTH3			LTH4			LLFE			LMFE			LSH1			LSH2			LSH3			LSH4			LLMAL			LMMAL			LCAL			LMTP5			LTOE			LMTP1			RPSIS			RASIS			RTH1			RTH2			RTH3			RTH4			RLFE			RMFE			RSH1			RSH2			RSH3			RSH4			RLMAL			RMMAL			RCAL			RMTP1			RTOE			RMTP5		
		X1	Y1	Z1	X2	Y2	Z2	X3	Y3	Z3	X4	Y4	Z4	X5	Y5	Z5	X6	Y6	Z6	X7	Y7	Z7	X8	Y8	Z8	X9	Y9	Z9	X10	Y10	Z10	X11	Y11	Z11	X12	Y12	Z12	X13	Y13	Z13	X14	Y14	Z14	X15	Y15	Z15	X16	Y16	Z16	X17	Y17	Z17	X18	Y18	Z18	X19	Y19	Z19	X20	Y20	Z20	X21	Y21	Z21	X22	Y22	Z22	X23	Y23	Z23	X24	Y24	Z24	X25	Y25	Z25	X26	Y26	Z26	X27	Y27	Z27	X28	Y28	Z28	X29	Y29	Z29	X30	Y30	Z30	X31	Y31	Z31	X32	Y32	Z32	X33	Y33	Z33	X34	Y34	Z34	X35	Y35	Z35	X36	Y36	Z36

1251	5.00000	-323.34210	1033.86719	205.80817	-519.81860	993.53589	306.13263	-396.04477	717.23743	376.08914	-389.97372	639.85083	364.10428	-384.85956	565.85791	360.97653	-470.20712	639.49683	356.66043	-375.68076	518.16467	354.94287	-403.79941	496.35635	231.18430	-264.64938	449.86798	354.90894	-238.79362	408.97787	355.77225	-312.94455	412.45575	363.93320	-281.40329	379.01050	359.90637	-73.89359	194.55722	296.35526	-103.36950	188.42372	211.14969	-18.76461	228.05006	238.86545	-102.34664	63.80270	318.28320	-164.46230	52.92816	258.87393	-131.40967	58.69736	206.15038	-328.07166	1032.05249	145.50522	-533.00293	1003.59253	73.87872	-526.72998	743.05701	8.85867	-548.83801	669.65967	30.26901	-570.27911	593.77429	38.34501	-616.17072	695.15015	61.34916	-587.12903	525.61517	58.82807	-577.27429	518.84467	182.95419	-544.74316	434.01944	39.28138	-556.68707	390.70825	35.49057	-605.02789	442.05704	52.50295	-608.44189	399.43515	45.17924	-580.00641	96.23151	98.77409	-611.11951	101.94183	187.13652	-528.10181	72.36673	171.61317	-742.88080	47.80108	172.12463	-758.45331	70.26671	117.97841	-705.59375	46.69020	61.45554
1252	5.00400	-328.12311	1034.07788	205.51141	-524.35040	993.81415	305.55447	-402.68869	716.96442	376.76276	-398.26031	639.04132	364.78513	-393.97412	564.96686	361.80487	-478.45352	639.54376	357.34341	-385.20291	517.09064	355.90097	-414.50330	494.96121	232.05542	-274.27637	450.52298	355.81967	-247.84993	409.81961	356.46677	-322.11600	412.35834	364.78839	-290.12607	379.35669	360.64166	-80.43295	198.52167	296.84039	-109.88267	191.60016	211.32068	-26.66223	233.78091	239.20102	-105.05958	66.89380	318.35941	-166.94119	53.18956	259.33405	-134.19112	60.96694	206.58905	-332.88162	1032.47705	145.19833	-537.90045	1004.48096	73.38582	-531.36798	743.44427	8.14281	-553.12189	669.87897	29.64822	-574.47681	593.99579	37.85303	-620.29938	695.18945	61.01173	-590.79761	525.71893	58.31211	-580.21045	520.09503	182.68925	-547.75720	434.31158	38.84231	-559.47064	390.91830	35.06199	-608.24121	441.95645	52.08643	-611.30267	399.37686	44.74413	-580.28564	96.31384	98.72057	-611.47272	101.95806	187.09193	-528.24524	72.47064	171.52904	-743.10297	47.43153	172.19633	-758.80023	69.68198	117.97901	-705.78369	46.51167	61.42746
1253	5.00800	-332.89859	1034.28076	205.21719	-528.81628	993.99738	304.97308	-410.07571	716.35400	376.80273	-406.54102	638.26025	365.23923	-403.05960	564.12738	362.62152	-488.38440	639.13947	357.84100	-394.71411	516.09131	356.69614	-425.18655	493.67419	232.94641	-284.00888	451.16980	356.64496	-256.94958	410.71393	357.18240	-331.35913	412.33386	365.57840	-298.94775	379.75784	361.31232	-87.14668	202.54207	297.27332	-116.60653	194.81020	211.47144	-34.81189	239.47394	239.50369	-108.01180	70.10419	318.41275	-169.11707	53.61753	259.76923	-136.53076	63.15375	205.45522	-337.70959	1032.88037	144.92882	-542.68079	1005.32373	72.88359	-535.78851	743.73010	7.40699	-557.20813	669.89008	29.01759	-578.33331	594.10956	37.10451	-624.31439	694.98535	60.55009	-594.18323	525.72711	57.81701	-583.04462	521.29053	182.43106	-550.73962	434.51282	38.37126	-562.11554	391.06512	34.68995	-611.25037	441.74213	51.66973	-614.07928	399.20667	44.35592	-580.52075	96.38045	98.65962	-611.71075	101.96939	187.04874	-528.32251	72.58643	171.45180	-743.31158	47.13780	172.25085	-758.39050	68.86700	118.46163	-705.93689	46.35550	61.37396
1254	5.01200	-337.66913	1034.47083	204.95110	-533.50287	994.29871	304.40057	-417.49625	715.79065	376.87851	-414.71164	637.58698	365.67926	-412.08786	563.38525	363.38660	-495.40594	639.42401	358.85822	-404.24100	515.21643	357.47540	-435.88062	492.60361	233.74785	-293.81662	451.84122	357.60358	-266.48950	413.12787	356.61267	-340.66449	412.35321	366.40979	-307.92035	380.16516	361.79208	-94.02621	206.59033	297.66943	-123.45158	197.61647	212.67299	-43.28308	245.03825	239.77950	-111.20618	73.46362	318.50586	-172.21875	54.25735	260.32758	-139.92615	65.86191	204.27592	-342.48865	1033.26672	144.66457	-547.48981	1006.22394	72.36141	-539.96521	743.90564	6.82786	-560.93103	669.84399	28.39838	-581.83771	594.02832	36.35151	-628.16681	694.67780	59.97012	-597.42029	525.61249	57.31855	-585.83521	522.34808	182.16135	-553.50708	434.67291	37.93386	-564.67261	391.12863	34.27421	-613.68549	441.42169	51.30875	-616.64679	398.95718	43.95106	-580.70898	96.47216	98.61562	-611.92542	101.94651	187.02094	-528.38458	72.66692	171.38559	-743.47113	46.90045	172.29507	-758.60229	68.47484	118.44703	-706.05035	46.21877	61.33524
1255	5.01600	-342.36844	1034.63123	204.66867	-538.22339	994.45398	303.81885	-424.91348	715.27271	376.96280	-422.92548	636.98486	366.09515	-421.12460	562.75824	364.15094	-503.24109	639.78345	358.68851	-413.71356	514.42139	358.24826	-446.55209	491.75192	234.53645	-303.69162	452.46826	358.45013	-275.68732	414.26495	357.10788	-350.03149	412.37091	367.17474	-316.63376	380.67465	362.62250	-101.03535	210.48825	298.00610	-130.49811	200.71292	212.90916	-51.90566	250.46207	240.02168	-114.74052	76.85292	318.50345	-175.45204	55.05252	260.89105	-143.87854	68.80753	205.94215	-347.27063	1033.64197	144.44676	-552.14941	1007.04236	71.79623	-543.97430	743.96790	6.24108	-564.51105	669.70428	27.84150	-585.03033	593.81720	35.59142	-631.93298	694.16571	59.27730	-600.65314	525.40302	56.84125	-588.58240	523.27374	181.88097	-556.09369	434.69196	37.63700	-567.02826	391.09155	34.01981	-616.93201	441.15118	50.79282	-620.05109	396.72668	45.16338	-581.04132	96.34836	98.62625	-612.14362	101.91533	187.02377	-528.46729	72.75553	171.34274	-743.63416	46.71351	172.29688	-758.79364	68.09840	118.40691	-706.12781	46.11278	61.27006
1256	5.02000	-347.06763	1034.79773	204.39787	-543.97815	995.02344	303.82172	-432.27496	714.85425	377.01483	-431.07257	636.48193	366.46124	-430.08951	562.20618	364.82370	-511.78497	640.08698	359.44928	-423.13171	513.71967	358.90109	-457.20203	491.12152	235.24710	-313.52795	453.18982	359.26517	-284.69333	415.19394	357.78687	-359.41830	412.50488	367.91083	-325.98593	381.10693	362.94455	-107.97503	214.23804	298.27640	-137.86215	203.80034	213.32758	-60.58293	255.67595	240.21155	-118.56699	80.26546	318.42007	-181.10770	57.22701	262.38580	-148.69385	70.26453	208.33276	-351.96774	1033.99670	144.20839	-557.14813	1007.93237	71.44543	-547.64764	744.08087	5.74817	-567.98749	669.55219	27.32678	-587.96588	593.58850	35.00426	-635.83691	693.67664	58.79370	-603.05725	525.00494	56.90875	-591.28650	524.07355	181.59082	-559.37933	434.68088	36.49625	-569.16571	391.10773	33.82743	-619.54498	440.78903	50.39282	-622.67371	396.43591	45.13306	-581.05267	96.55418	98.60957	-612.32825	101.88576	186.99959	-528.54694	72.84064	171.30542	-743.79791	46.69381	172.50107	-759.00586	67.92096	118.54952	-706.31445	46.09140	61.34819
1257	5.02400	-351.75830	1034.91504	204.09436	-548.64233	995.17279	303.32358	-439.56567	714.52161	377.06735	-439.17819	636.06866	366.82523	-439.02145	561.79480	365.49646	-519.47900	640.57239	360.40036	-432.53220	513.24225	359.52374	-467.68076	490.76837	235.89888	-323.34454	453.89505	360.10303	-294.81830	416.07251	358.63724	-368.88541	412.67352	368.50186	-334.83817	381.76059	363.53287	-114.82035	217.84541	298.50430	-145.19176	206.88628	213.51576	-69.08176	260.40991	240.20975	-122.86651	83.63225	318.42831	-184.83809	58.51347	262.90552	-153.20282	72.72436	208.88658	-356.68030	1034.34729	143.94203	-561.85455	1008.69000	70.87778	-551.11572	744.10632	5.13748	-571.34717	669.35803	26.80668	-590.64459	593.40332	34.50984	-638.96649	693.38562	57.43307	-606.35101	524.95758	55.78595	-593.94769	524.75366	181.29170	-561.69598	434.74588	35.98594	-570.97015	391.03339	33.53478	-622.07355	440.38904	50.05713	-624.48181	396.12180	44.40875	-581.30145	96.41215	98.60272	-612.56415	101.85169	186.98993	-528.61230	72.92345	171.27007	-743.87927	46.36237	172.32390	-759.09857	67.51228	118.31827	-706.29041	45.89706	61.12789
1258	5.02800	-356.45480	1035.02417	203.79553	-553.02759	995.17023	302.81165	-446.77313	714.29456	377.07635	-447.22531	635.79456	367.15366	-447.77682	561.48340	366.07690	-527.50800	640.99115	360.96686	-441.76166	512.85901	360.04782	-477.98969	490.71664	236.46533	-333.16071	454.63425	360.84833	-304.31784	417.03986	359.26443	-378.34018	412.93015	369.05316	-344.01138	382.30231	364.07907	-121.89790	221.34250	298.66257	-152.48050	209.77972	213.68553	-77.21761	264.53967	240.03532	-127.73425	86.95602	318.67764	-189.47067	60.32227	263.64310	-157.91473	75.61744	209.45580	-361.38901	1034.66992	143.67522	-565.94965	1009.32629	69.66707	-554.67175	744.04218	4.78059	-574.57550	669.10187	26.32675	-593.36414	593.18359	34.52036	-642.46649	692.76849	56.54812	-609.09656	524.61444	55.38796	-596.56616	525.32013	180.98456	-564.03766	434.62881	35.64755	-572.80127	390.87653	33.44474	-624.50671	440.08588	49.38103	-626.55817	395.72821	44.17535	-581.45386	96.43945	98.63731	-612.74908	101.80704	187.00089	-528.68176	72.97874	171.26733	-743.98700	46.18472	172.37946	-759.25531	67.20939	118.32109	-706.33228	45.80019	61.09711
